<svg xmlns="http://www.w3.org/2000/svg" xml:space="preserve" width="783" height="685">
<path fill="#DAA520" d="M1.337 669.163C9.686 654.737 342.657 74.741 383.253 4.505c3.438-5.947 13.437-6.056 16.916-.031 41.03 71.08 376.89 655.925 380.8 662.676 4.159 7.181 1.135 17.813-11.154 17.813H9.253c-8.791 0-11.044-10.395-7.916-15.8"/><path fill="#fff" d="M92.79 618.32c6.365-10.996 263.22-456.206 294.163-509.742 2.62-4.533 7.193-4.647 9.844-.055 31.275 54.181 290.331 503.131 293.312 508.278 3.17 5.473 1.628 12.162-7.739 12.162H98.063c-6.702 0-7.657-6.524-5.273-10.643"/><path d="M416.148 542.57q0 8.057-1.098 13.305-1.1 5.251-4.15 8.545-3.055 3.294-7.935 4.639-4.887 1.34-12.451 1.342c-5.047 0-9.24-.45-12.574-1.342q-5.005-1.344-7.934-4.64c-2.93-3.295-3.296-5.042-4.028-8.544q-1.1-5.248-1.1-13.306c0-8.058.367-8.887 1.1-12.55s2.075-6.507 4.028-8.544q2.929-3.05 7.934-4.395 5.002-1.341 12.574-1.343 7.565.002 12.45 1.343 4.881 1.345 7.935 4.395c2.034 2.037 3.418 4.882 4.15 8.544s1.1 7.18 1.1 12.55m-7.568-65.675c0 1.305-.286 2.442-.854 3.419-.573.976-1.587 1.793-3.052 2.44q-2.199.98-5.615 1.466c-2.282.328-5.127.488-8.545.488s-6.268-.16-8.545-.488c-2.281-.324-4.15-.813-5.615-1.465-1.465-.648-2.484-1.465-3.052-2.441-.573-.977-.855-2.114-.855-3.418l-9.089-232.91c-.164-1.954-.027-3.663.625-5.128.649-1.464 1.791-2.685 3.5-3.662s4.276-1.667 7.125-2.075c2.846-.404 11.347-.61 15.906-.61 4.394 0 12.995.244 15.844.732 2.846.488 5.166 1.22 6.875 2.197s2.848 2.16 3.5 3.54c.649 1.385 1 3.052 1 5.005z"/></svg>