<svg xmlns="http://www.w3.org/2000/svg" xml:space="preserve" width="109.989" height="110">
<g transform="translate(5.218 4.782)">
    <path fill="#0B6623" d="m92.423 81.112-.975-.975c-7.514-7.514-21.246-21.246-32.626-32.635l22.299-22.299 4.778.334.104.003c.539 0 1.041-.292 1.305-.769l7.275-13.113a1.49 1.49 0 0 0-.25-1.779L90.12 5.667a1.49 1.49 0 0 0-1.779-.25l-13.113 7.276a1.49 1.49 0 0 0-.765 1.409l.334 4.776-22.299 22.299-11.786-11.786a18.2 18.2 0 0 0-4.343-18.82C31.481 5.684 24.37 3.983 17.808 6.133q-.032.014-.065.029-.035.014-.068.03a1.5 1.5 0 0 0-.435.289c-.007.007-.016.008-.023.015-.009.009-.012.021-.02.03a1.5 1.5 0 0 0-.41 1.061c.003.143.02.286.067.429.008.024.021.044.03.067q.013.033.029.064.11.248.289.435c.007.007.009.017.016.024l7.089 7.089a3.56 3.56 0 0 1 1.049 2.527 3.54 3.54 0 0 1-1.044 2.522L20.757 24.3a3.575 3.575 0 0 1-5.049-.005l-7.089-7.089c-.007-.007-.016-.008-.022-.015a1.5 1.5 0 0 0-.436-.29q-.034-.016-.067-.03c-.023-.009-.043-.022-.066-.029a1.5 1.5 0 0 0-.425-.066q-.036-.002-.071-.001a1.48 1.48 0 0 0-.993.413c-.009.008-.02.011-.029.019-.007.007-.008.016-.015.022q-.18.187-.289.435-.016.034-.03.069-.015.033-.029.066c-2.143 6.566-.443 13.677 4.438 18.559a18.21 18.21 0 0 0 12.891 5.349c1.986 0 3.984-.346 5.923-1.012l7.518 7.519c-.131-.01-.257-.038-.389-.038-1.417 0-2.75.552-3.751 1.554L6.337 76.167a5.27 5.27 0 0 0-1.555 3.752 5.27 5.27 0 0 0 1.555 3.752l2.295 2.296.001.002.002.001 7.693 7.694a5.27 5.27 0 0 0 3.752 1.554 5.27 5.27 0 0 0 3.752-1.554L50.27 67.225a5.27 5.27 0 0 0 1.555-3.752c0-.131-.028-.257-.038-.387l29.321 29.34a7.97 7.97 0 0 0 5.652 2.335 8 8 0 0 0 5.662-2.335 7.94 7.94 0 0 0 2.338-5.652 7.95 7.95 0 0 0-2.337-5.662M77.389 20.508c.007-.007.009-.017.016-.024q.183-.192.29-.437.014-.029.027-.058.09-.232.096-.492.002-.037.002-.075c0-.025.004-.048.002-.073l-.315-4.507 11.298-6.269 2.622 2.623-6.269 11.298-4.507-.316c-.026-.002-.05.003-.075.002l-.068.002a1.5 1.5 0 0 0-.493.096q-.033.014-.066.03a1.5 1.5 0 0 0-.425.282c-.01.009-.022.012-.032.021L51.5 50.604 49.396 48.5ZM30.87 37.945a1.49 1.49 0 0 0-1.638-.352 15.24 15.24 0 0 1-16.539-3.347A15.17 15.17 0 0 1 8.4 21.208l5.196 5.197a6.55 6.55 0 0 0 4.64 1.919 6.53 6.53 0 0 0 4.63-1.914l3.555-3.555a6.5 6.5 0 0 0 1.918-4.634 6.52 6.52 0 0 0-1.924-4.636l-5.199-5.199a15.16 15.16 0 0 1 13.041 4.295 15.22 15.22 0 0 1 3.437 16.277l-1.562 1.572a1.492 1.492 0 1 0 2.118 2.103l.739-.743 11.397 11.397-3.108 3.108a4.28 4.28 0 0 0-2.973-1.202 4.28 4.28 0 0 0-3.049 1.263l-.938.938zM15.087 88.201 11.8 84.913l22.819-22.819c.878-.878 2.41-.878 3.288 0 .907.906.907 2.38 0 3.287zm33.075-23.086L21.723 91.553c-.876.876-2.408.876-3.284 0l-1.242-1.242 22.82-22.82a5.315 5.315 0 0 0 0-7.508 5.28 5.28 0 0 0-3.754-1.556 5.27 5.27 0 0 0-3.754 1.556l-22.82 22.82-1.242-1.243a2.3 2.3 0 0 1-.68-1.642c0-.62.242-1.203.68-1.642l26.438-26.439a2.3 2.3 0 0 1 1.641-.68c.621 0 1.204.241 1.642.68l9.993 9.993c.438.438.68 1.021.68 1.641a2.3 2.3 0 0 1-.679 1.644m3.27-8.483-2.124 2.124-8.065-8.064 2.125-2.124c.5-.5 1.374-.501 1.876 0l.978.977q.003.005.008.012l4.214 4.214q.005.003.012.008l.978.978a1.33 1.33 0 0 1-.002 1.875m38.883 33.681c-1.961 1.952-5.144 1.953-7.095.002L52.605 59.68l.938-.938a4.31 4.31 0 0 0 .061-6.022l3.108-3.108c11.381 11.39 25.113 25.121 32.626 32.635l.975.975a4.99 4.99 0 0 1 1.463 3.551c0 1.34-.52 2.598-1.461 3.54"/>
    <circle cx="86.766" cy="86.769" r="2.403"/>
    </g></svg>